G04 MADE WITH FRITZING*
G04 WWW.FRITZING.ORG*
G04 DOUBLE SIDED*
G04 HOLES PLATED*
G04 CONTOUR ON CENTER OF CONTOUR VECTOR*
%ASAXBY*%
%FSLAX23Y23*%
%MOIN*%
%OFA0B0*%
%SFA1.0B1.0*%
%ADD10C,0.077778*%
%ADD11C,0.092000*%
%ADD12C,0.062992*%
%ADD13C,0.070000*%
%ADD14C,0.075000*%
%ADD15C,0.078000*%
%ADD16C,0.039370*%
%ADD17R,0.092000X0.092000*%
%ADD18R,0.062992X0.062992*%
%ADD19R,0.075000X0.075000*%
%ADD20C,0.024000*%
%ADD21R,0.001000X0.001000*%
%LNCOPPER1*%
G90*
G70*
G54D10*
X699Y1124D03*
X699Y1024D03*
X699Y924D03*
X699Y824D03*
X699Y724D03*
X699Y624D03*
X699Y524D03*
X699Y424D03*
X1599Y424D03*
X1599Y524D03*
X1599Y624D03*
X1599Y724D03*
X1599Y824D03*
X1599Y924D03*
X1599Y1024D03*
X1599Y1124D03*
G54D11*
X1949Y774D03*
X1949Y474D03*
G54D12*
X242Y1081D03*
X242Y1180D03*
X242Y631D03*
X242Y730D03*
G54D13*
X1949Y924D03*
X1949Y1024D03*
X1949Y1124D03*
G54D14*
X1692Y1580D03*
X1792Y1580D03*
X2149Y474D03*
X2149Y874D03*
X2149Y1074D03*
X2149Y1474D03*
G54D15*
X1749Y1124D03*
X1749Y1024D03*
X1749Y924D03*
X1749Y824D03*
X1749Y724D03*
X1749Y624D03*
X1749Y524D03*
X1749Y424D03*
X549Y1124D03*
X549Y1024D03*
X549Y924D03*
X549Y824D03*
X549Y724D03*
X549Y624D03*
X549Y524D03*
X549Y424D03*
X2049Y1624D03*
X1949Y1624D03*
G54D16*
X300Y1352D03*
X1164Y1424D03*
X492Y1664D03*
G54D17*
X1949Y774D03*
G54D18*
X242Y1081D03*
X242Y631D03*
G54D19*
X1692Y1580D03*
G54D20*
X1719Y1124D02*
X1628Y1124D01*
D02*
X1719Y1024D02*
X1628Y1024D01*
D02*
X1628Y924D02*
X1719Y924D01*
D02*
X1628Y824D02*
X1719Y824D01*
D02*
X1628Y724D02*
X1719Y724D01*
D02*
X1628Y624D02*
X1719Y624D01*
D02*
X1628Y524D02*
X1719Y524D01*
D02*
X1628Y424D02*
X1719Y424D01*
D02*
X670Y1124D02*
X579Y1124D01*
D02*
X670Y1024D02*
X579Y1024D01*
D02*
X670Y924D02*
X579Y924D01*
D02*
X670Y624D02*
X579Y624D01*
D02*
X670Y524D02*
X579Y524D01*
D02*
X670Y424D02*
X579Y424D01*
D02*
X670Y824D02*
X579Y824D01*
D02*
X670Y724D02*
X579Y724D01*
D02*
X1924Y1017D02*
X1764Y968D01*
X1764Y968D02*
X1759Y953D01*
D02*
X2026Y1605D02*
X1980Y1568D01*
X1980Y1568D02*
X1836Y1568D01*
X1836Y1568D02*
X1819Y1572D01*
D02*
X1969Y941D02*
X2004Y968D01*
X2004Y968D02*
X2004Y1184D01*
X2004Y1184D02*
X1956Y1184D01*
X1956Y1184D02*
X1956Y1544D01*
X1956Y1544D02*
X1980Y1568D01*
D02*
X1760Y452D02*
X1764Y464D01*
X1764Y464D02*
X1812Y464D01*
X1812Y464D02*
X1812Y800D01*
X1812Y800D02*
X1930Y907D01*
D02*
X1183Y1426D02*
X1764Y1496D01*
X1764Y1496D02*
X1783Y1552D01*
D02*
X2131Y896D02*
X2052Y992D01*
X2052Y992D02*
X2052Y1256D01*
X2052Y1256D02*
X2124Y1688D01*
X2124Y1688D02*
X511Y1664D01*
D02*
X1581Y501D02*
X1572Y488D01*
X1572Y488D02*
X1524Y488D01*
X1524Y488D02*
X1524Y368D01*
X1524Y368D02*
X1860Y344D01*
X1860Y344D02*
X1860Y632D01*
X1860Y632D02*
X1929Y743D01*
D02*
X261Y1100D02*
X300Y1136D01*
X300Y1136D02*
X300Y1333D01*
D02*
X262Y648D02*
X300Y680D01*
X300Y680D02*
X300Y776D01*
X300Y776D02*
X247Y1055D01*
G54D21*
X1943Y1159D02*
X1953Y1159D01*
X1939Y1158D02*
X1957Y1158D01*
X1936Y1157D02*
X1960Y1157D01*
X1934Y1156D02*
X1962Y1156D01*
X1932Y1155D02*
X1964Y1155D01*
X1930Y1154D02*
X1966Y1154D01*
X1928Y1153D02*
X1968Y1153D01*
X1927Y1152D02*
X1969Y1152D01*
X1926Y1151D02*
X1970Y1151D01*
X1924Y1150D02*
X1971Y1150D01*
X1923Y1149D02*
X1973Y1149D01*
X1923Y1148D02*
X1973Y1148D01*
X1922Y1147D02*
X1974Y1147D01*
X1921Y1146D02*
X1975Y1146D01*
X1920Y1145D02*
X1976Y1145D01*
X1920Y1144D02*
X1976Y1144D01*
X1919Y1143D02*
X1977Y1143D01*
X1918Y1142D02*
X1978Y1142D01*
X1918Y1141D02*
X1978Y1141D01*
X1917Y1140D02*
X1979Y1140D01*
X1917Y1139D02*
X1943Y1139D01*
X1953Y1139D02*
X1979Y1139D01*
X1916Y1138D02*
X1941Y1138D01*
X1955Y1138D02*
X1980Y1138D01*
X1916Y1137D02*
X1939Y1137D01*
X1957Y1137D02*
X1980Y1137D01*
X1916Y1136D02*
X1938Y1136D01*
X1958Y1136D02*
X1980Y1136D01*
X1915Y1135D02*
X1937Y1135D01*
X1959Y1135D02*
X1981Y1135D01*
X1915Y1134D02*
X1936Y1134D01*
X1960Y1134D02*
X1981Y1134D01*
X1915Y1133D02*
X1935Y1133D01*
X1961Y1133D02*
X1981Y1133D01*
X1914Y1132D02*
X1934Y1132D01*
X1962Y1132D02*
X1982Y1132D01*
X1914Y1131D02*
X1934Y1131D01*
X1962Y1131D02*
X1982Y1131D01*
X1914Y1130D02*
X1933Y1130D01*
X1963Y1130D02*
X1982Y1130D01*
X1914Y1129D02*
X1933Y1129D01*
X1963Y1129D02*
X1982Y1129D01*
X1914Y1128D02*
X1933Y1128D01*
X1963Y1128D02*
X1982Y1128D01*
X1914Y1127D02*
X1933Y1127D01*
X1963Y1127D02*
X1982Y1127D01*
X1914Y1126D02*
X1933Y1126D01*
X1963Y1126D02*
X1982Y1126D01*
X1914Y1125D02*
X1933Y1125D01*
X1963Y1125D02*
X1982Y1125D01*
X1914Y1124D02*
X1933Y1124D01*
X1963Y1124D02*
X1982Y1124D01*
X1914Y1123D02*
X1933Y1123D01*
X1963Y1123D02*
X1982Y1123D01*
X1914Y1122D02*
X1933Y1122D01*
X1963Y1122D02*
X1982Y1122D01*
X1914Y1121D02*
X1933Y1121D01*
X1963Y1121D02*
X1982Y1121D01*
X1914Y1120D02*
X1933Y1120D01*
X1963Y1120D02*
X1982Y1120D01*
X1914Y1119D02*
X1933Y1119D01*
X1963Y1119D02*
X1982Y1119D01*
X1914Y1118D02*
X1934Y1118D01*
X1962Y1118D02*
X1982Y1118D01*
X1914Y1117D02*
X1934Y1117D01*
X1962Y1117D02*
X1981Y1117D01*
X1915Y1116D02*
X1935Y1116D01*
X1961Y1116D02*
X1981Y1116D01*
X1915Y1115D02*
X1936Y1115D01*
X1960Y1115D02*
X1981Y1115D01*
X1915Y1114D02*
X1937Y1114D01*
X1959Y1114D02*
X1981Y1114D01*
X1916Y1113D02*
X1938Y1113D01*
X1958Y1113D02*
X1980Y1113D01*
X1916Y1112D02*
X1939Y1112D01*
X1957Y1112D02*
X1980Y1112D01*
X1916Y1111D02*
X1941Y1111D01*
X1955Y1111D02*
X1980Y1111D01*
X1917Y1110D02*
X1944Y1110D01*
X1952Y1110D02*
X1979Y1110D01*
X1917Y1109D02*
X1979Y1109D01*
X1918Y1108D02*
X1978Y1108D01*
X1918Y1107D02*
X1978Y1107D01*
X1919Y1106D02*
X1977Y1106D01*
X1920Y1105D02*
X1976Y1105D01*
X1920Y1104D02*
X1976Y1104D01*
X1921Y1103D02*
X1975Y1103D01*
X1922Y1102D02*
X1974Y1102D01*
X1923Y1101D02*
X1973Y1101D01*
X1924Y1100D02*
X1972Y1100D01*
X1925Y1099D02*
X1971Y1099D01*
X1926Y1098D02*
X1970Y1098D01*
X1927Y1097D02*
X1969Y1097D01*
X1928Y1096D02*
X1967Y1096D01*
X1930Y1095D02*
X1966Y1095D01*
X1932Y1094D02*
X1964Y1094D01*
X1934Y1093D02*
X1962Y1093D01*
X1936Y1092D02*
X1960Y1092D01*
X1939Y1091D02*
X1957Y1091D01*
X1944Y1090D02*
X1952Y1090D01*
X1943Y1059D02*
X1953Y1059D01*
X1939Y1058D02*
X1957Y1058D01*
X1936Y1057D02*
X1960Y1057D01*
X1934Y1056D02*
X1962Y1056D01*
X1931Y1055D02*
X1964Y1055D01*
X1930Y1054D02*
X1966Y1054D01*
X1928Y1053D02*
X1968Y1053D01*
X1927Y1052D02*
X1969Y1052D01*
X1926Y1051D02*
X1970Y1051D01*
X1924Y1050D02*
X1971Y1050D01*
X1923Y1049D02*
X1973Y1049D01*
X1923Y1048D02*
X1973Y1048D01*
X1922Y1047D02*
X1974Y1047D01*
X1921Y1046D02*
X1975Y1046D01*
X1920Y1045D02*
X1976Y1045D01*
X1920Y1044D02*
X1976Y1044D01*
X1919Y1043D02*
X1977Y1043D01*
X1918Y1042D02*
X1978Y1042D01*
X1918Y1041D02*
X1978Y1041D01*
X1917Y1040D02*
X1979Y1040D01*
X1917Y1039D02*
X1943Y1039D01*
X1953Y1039D02*
X1979Y1039D01*
X1916Y1038D02*
X1941Y1038D01*
X1955Y1038D02*
X1980Y1038D01*
X1916Y1037D02*
X1939Y1037D01*
X1957Y1037D02*
X1980Y1037D01*
X1916Y1036D02*
X1938Y1036D01*
X1958Y1036D02*
X1980Y1036D01*
X1915Y1035D02*
X1937Y1035D01*
X1959Y1035D02*
X1981Y1035D01*
X1915Y1034D02*
X1936Y1034D01*
X1960Y1034D02*
X1981Y1034D01*
X1915Y1033D02*
X1935Y1033D01*
X1961Y1033D02*
X1981Y1033D01*
X1914Y1032D02*
X1934Y1032D01*
X1962Y1032D02*
X1982Y1032D01*
X1914Y1031D02*
X1934Y1031D01*
X1962Y1031D02*
X1982Y1031D01*
X1914Y1030D02*
X1933Y1030D01*
X1963Y1030D02*
X1982Y1030D01*
X1914Y1029D02*
X1933Y1029D01*
X1963Y1029D02*
X1982Y1029D01*
X1914Y1028D02*
X1933Y1028D01*
X1963Y1028D02*
X1982Y1028D01*
X1914Y1027D02*
X1933Y1027D01*
X1963Y1027D02*
X1982Y1027D01*
X1914Y1026D02*
X1933Y1026D01*
X1963Y1026D02*
X1982Y1026D01*
X1914Y1025D02*
X1933Y1025D01*
X1963Y1025D02*
X1982Y1025D01*
X1914Y1024D02*
X1933Y1024D01*
X1963Y1024D02*
X1982Y1024D01*
X1914Y1023D02*
X1933Y1023D01*
X1963Y1023D02*
X1982Y1023D01*
X1914Y1022D02*
X1933Y1022D01*
X1963Y1022D02*
X1982Y1022D01*
X1914Y1021D02*
X1933Y1021D01*
X1963Y1021D02*
X1982Y1021D01*
X1914Y1020D02*
X1933Y1020D01*
X1963Y1020D02*
X1982Y1020D01*
X1914Y1019D02*
X1933Y1019D01*
X1963Y1019D02*
X1982Y1019D01*
X1914Y1018D02*
X1934Y1018D01*
X1962Y1018D02*
X1982Y1018D01*
X1914Y1017D02*
X1934Y1017D01*
X1962Y1017D02*
X1981Y1017D01*
X1915Y1016D02*
X1935Y1016D01*
X1961Y1016D02*
X1981Y1016D01*
X1915Y1015D02*
X1936Y1015D01*
X1960Y1015D02*
X1981Y1015D01*
X1915Y1014D02*
X1937Y1014D01*
X1959Y1014D02*
X1981Y1014D01*
X1916Y1013D02*
X1938Y1013D01*
X1958Y1013D02*
X1980Y1013D01*
X1916Y1012D02*
X1939Y1012D01*
X1957Y1012D02*
X1980Y1012D01*
X1916Y1011D02*
X1941Y1011D01*
X1955Y1011D02*
X1980Y1011D01*
X1917Y1010D02*
X1944Y1010D01*
X1952Y1010D02*
X1979Y1010D01*
X1917Y1009D02*
X1979Y1009D01*
X1918Y1008D02*
X1978Y1008D01*
X1918Y1007D02*
X1978Y1007D01*
X1919Y1006D02*
X1977Y1006D01*
X1920Y1005D02*
X1976Y1005D01*
X1920Y1004D02*
X1976Y1004D01*
X1921Y1003D02*
X1975Y1003D01*
X1922Y1002D02*
X1974Y1002D01*
X1923Y1001D02*
X1973Y1001D01*
X1924Y1000D02*
X1972Y1000D01*
X1925Y999D02*
X1971Y999D01*
X1926Y998D02*
X1970Y998D01*
X1927Y997D02*
X1969Y997D01*
X1928Y996D02*
X1967Y996D01*
X1930Y995D02*
X1966Y995D01*
X1932Y994D02*
X1964Y994D01*
X1934Y993D02*
X1962Y993D01*
X1936Y992D02*
X1960Y992D01*
X1939Y991D02*
X1957Y991D01*
X1944Y990D02*
X1952Y990D01*
X1943Y959D02*
X1953Y959D01*
X1939Y958D02*
X1957Y958D01*
X1936Y957D02*
X1960Y957D01*
X1934Y956D02*
X1962Y956D01*
X1931Y955D02*
X1964Y955D01*
X1930Y954D02*
X1966Y954D01*
X1928Y953D02*
X1968Y953D01*
X1927Y952D02*
X1969Y952D01*
X1926Y951D02*
X1970Y951D01*
X1924Y950D02*
X1971Y950D01*
X1923Y949D02*
X1973Y949D01*
X1923Y948D02*
X1973Y948D01*
X1922Y947D02*
X1974Y947D01*
X1921Y946D02*
X1975Y946D01*
X1920Y945D02*
X1976Y945D01*
X1919Y944D02*
X1976Y944D01*
X1919Y943D02*
X1977Y943D01*
X1918Y942D02*
X1978Y942D01*
X1918Y941D02*
X1978Y941D01*
X1917Y940D02*
X1979Y940D01*
X1917Y939D02*
X1943Y939D01*
X1953Y939D02*
X1979Y939D01*
X1916Y938D02*
X1941Y938D01*
X1955Y938D02*
X1980Y938D01*
X1916Y937D02*
X1939Y937D01*
X1957Y937D02*
X1980Y937D01*
X1916Y936D02*
X1938Y936D01*
X1958Y936D02*
X1980Y936D01*
X1915Y935D02*
X1937Y935D01*
X1959Y935D02*
X1981Y935D01*
X1915Y934D02*
X1936Y934D01*
X1960Y934D02*
X1981Y934D01*
X1915Y933D02*
X1935Y933D01*
X1961Y933D02*
X1981Y933D01*
X1914Y932D02*
X1934Y932D01*
X1962Y932D02*
X1982Y932D01*
X1914Y931D02*
X1934Y931D01*
X1962Y931D02*
X1982Y931D01*
X1914Y930D02*
X1933Y930D01*
X1963Y930D02*
X1982Y930D01*
X1914Y929D02*
X1933Y929D01*
X1963Y929D02*
X1982Y929D01*
X1914Y928D02*
X1933Y928D01*
X1963Y928D02*
X1982Y928D01*
X1914Y927D02*
X1933Y927D01*
X1963Y927D02*
X1982Y927D01*
X1914Y926D02*
X1933Y926D01*
X1963Y926D02*
X1982Y926D01*
X1914Y925D02*
X1933Y925D01*
X1963Y925D02*
X1982Y925D01*
X1914Y924D02*
X1933Y924D01*
X1963Y924D02*
X1982Y924D01*
X1914Y923D02*
X1933Y923D01*
X1963Y923D02*
X1982Y923D01*
X1914Y922D02*
X1933Y922D01*
X1963Y922D02*
X1982Y922D01*
X1914Y921D02*
X1933Y921D01*
X1963Y921D02*
X1982Y921D01*
X1914Y920D02*
X1933Y920D01*
X1963Y920D02*
X1982Y920D01*
X1914Y919D02*
X1933Y919D01*
X1963Y919D02*
X1982Y919D01*
X1914Y918D02*
X1934Y918D01*
X1962Y918D02*
X1982Y918D01*
X1914Y917D02*
X1934Y917D01*
X1961Y917D02*
X1981Y917D01*
X1915Y916D02*
X1935Y916D01*
X1961Y916D02*
X1981Y916D01*
X1915Y915D02*
X1936Y915D01*
X1960Y915D02*
X1981Y915D01*
X1915Y914D02*
X1937Y914D01*
X1959Y914D02*
X1981Y914D01*
X1916Y913D02*
X1938Y913D01*
X1958Y913D02*
X1980Y913D01*
X1916Y912D02*
X1939Y912D01*
X1957Y912D02*
X1980Y912D01*
X1916Y911D02*
X1941Y911D01*
X1955Y911D02*
X1980Y911D01*
X1917Y910D02*
X1944Y910D01*
X1952Y910D02*
X1979Y910D01*
X1917Y909D02*
X1979Y909D01*
X1918Y908D02*
X1978Y908D01*
X1918Y907D02*
X1978Y907D01*
X1919Y906D02*
X1977Y906D01*
X1920Y905D02*
X1976Y905D01*
X1920Y904D02*
X1976Y904D01*
X1921Y903D02*
X1975Y903D01*
X1922Y902D02*
X1974Y902D01*
X1923Y901D02*
X1973Y901D01*
X1924Y900D02*
X1972Y900D01*
X1925Y899D02*
X1971Y899D01*
X1926Y898D02*
X1970Y898D01*
X1927Y897D02*
X1969Y897D01*
X1929Y896D02*
X1967Y896D01*
X1930Y895D02*
X1966Y895D01*
X1932Y894D02*
X1964Y894D01*
X1934Y893D02*
X1962Y893D01*
X1936Y892D02*
X1960Y892D01*
X1939Y891D02*
X1957Y891D01*
X1944Y890D02*
X1952Y890D01*
D02*
G04 End of Copper1*
M02*