; NON-PLATED HOLES START AT T1
; THROUGH (PLATED) HOLES START AT T100
M48
INCH
T1C0.125984
T100C0.015748
T101C0.031497
T102C0.030000
T103C0.036111
T104C0.035000
T105C0.038000
T106C0.037194
T107C0.052000
%
T1
X001417Y016295
X018488Y001242
X022417Y016295
X004988Y001242
T100
X003000Y013522
X011640Y014242
X004920Y016642
T101
X002417Y006310
X002417Y011795
X002417Y007295
X002417Y010810
T102
X019488Y011242
X019488Y009242
X019488Y010242
T103
X006989Y009242
X015988Y009242
X006989Y004242
X015988Y004242
X006989Y005242
X015988Y005242
X006989Y006242
X015988Y006242
X006989Y010242
X015988Y010242
X006989Y007242
X015988Y007242
X006989Y011242
X015988Y011242
X006989Y008242
X015988Y008242
T104
X021488Y004742
X021488Y010742
X017917Y015795
X016917Y015795
X021488Y008742
X021488Y014742
T105
X017489Y011242
X005489Y004242
X019488Y016242
X017489Y008242
X020488Y016242
X005489Y005242
X017489Y009242
X005489Y006242
X005489Y010242
X017489Y004242
X005489Y007242
X005489Y011242
X017489Y005242
X005489Y008242
X017489Y006242
X005489Y009242
X017489Y010242
X017489Y007242
T106
X006417Y015795
X005417Y015795
X004417Y015795
X015417Y015795
X003417Y015795
X014417Y015795
X013417Y015795
X012417Y015795
X011417Y015795
X010417Y015795
X008417Y015795
X007417Y015795
T107
X019488Y004742
X019488Y007742
T00
M30
