; NON-PLATED HOLES START AT T1
; THROUGH (PLATED) HOLES START AT T100
M48
INCH
T100C0.015748
T101C0.031497
T102C0.030000
T103C0.036111
T104C0.035000
T105C0.038000
T106C0.052000
%
T100
X014488Y009405
T101
X001488Y012405
X005473Y012405
X004488Y012405
X002473Y012405
T102
X019488Y011405
X019488Y009405
X019488Y010405
T103
X009488Y011165
X010488Y002165
X011488Y002165
X009488Y002165
X012488Y011165
X013488Y011165
X014488Y011165
X012488Y002165
X013488Y002165
X014488Y002165
X007488Y011165
X008488Y011165
X007488Y002165
X010488Y011165
X008488Y002165
X011488Y011165
T104
X019488Y003405
X021488Y002905
X019488Y007405
X002988Y001905
X021488Y006905
X001988Y001905
T105
X014488Y012405
X001488Y006405
X009488Y012405
X013488Y000905
X012488Y012405
X008488Y012405
X011488Y012405
X007488Y000905
X003488Y004405
X010488Y000905
X021488Y011405
X001488Y005405
X003488Y006405
X014488Y000905
X013488Y012405
X021488Y010405
X009488Y000905
X012488Y000905
X008488Y000905
X007488Y012405
X011488Y000905
X010488Y012405
X001488Y004405
X003488Y005405
T106
X021988Y001405
X018988Y001405
T00
M30
