G04 MADE WITH FRITZING*
G04 WWW.FRITZING.ORG*
G04 DOUBLE SIDED*
G04 HOLES PLATED*
G04 CONTOUR ON CENTER OF CONTOUR VECTOR*
%ASAXBY*%
%FSLAX23Y23*%
%MOIN*%
%OFA0B0*%
%SFA1.0B1.0*%
%ADD10C,0.088000*%
%ADD11C,0.049370*%
%ADD12C,0.087778*%
%ADD13C,0.102000*%
%ADD14C,0.072992*%
%ADD15C,0.085000*%
%ADD16R,0.102000X0.102000*%
%ADD17R,0.072992X0.072992*%
%ADD18R,0.085000X0.085000*%
%ADD19R,0.001000X0.001000*%
%LNMASK0*%
G90*
G70*
G54D10*
X749Y1241D03*
X849Y1241D03*
X949Y1241D03*
X1049Y1241D03*
X1149Y1241D03*
X1249Y1241D03*
X1349Y1241D03*
X1449Y1241D03*
X749Y91D03*
X849Y91D03*
X949Y91D03*
X1049Y91D03*
X1149Y91D03*
X1249Y91D03*
X1349Y91D03*
X1449Y91D03*
X2149Y1141D03*
X2149Y1041D03*
X149Y441D03*
X149Y541D03*
X149Y641D03*
X349Y441D03*
X349Y541D03*
X349Y641D03*
G54D11*
X1449Y941D03*
G54D12*
X749Y217D03*
X849Y217D03*
X949Y217D03*
X1049Y217D03*
X1149Y217D03*
X1249Y217D03*
X1349Y217D03*
X1449Y217D03*
X1449Y1117D03*
X1349Y1117D03*
X1249Y1117D03*
X1149Y1117D03*
X1049Y1117D03*
X949Y1117D03*
X849Y1117D03*
X749Y1117D03*
G54D13*
X2199Y141D03*
X1899Y141D03*
G54D14*
X247Y1241D03*
X149Y1241D03*
X547Y1241D03*
X449Y1241D03*
G54D15*
X199Y191D03*
X299Y191D03*
X1949Y341D03*
X1949Y741D03*
X2149Y291D03*
X2149Y691D03*
G54D16*
X2199Y141D03*
G54D17*
X247Y1241D03*
X547Y1241D03*
G54D18*
X199Y191D03*
G54D19*
X1942Y1181D02*
X1953Y1181D01*
X1938Y1180D02*
X1958Y1180D01*
X1934Y1179D02*
X1961Y1179D01*
X1932Y1178D02*
X1964Y1178D01*
X1930Y1177D02*
X1966Y1177D01*
X1928Y1176D02*
X1968Y1176D01*
X1927Y1175D02*
X1969Y1175D01*
X1925Y1174D02*
X1971Y1174D01*
X1924Y1173D02*
X1972Y1173D01*
X1923Y1172D02*
X1973Y1172D01*
X1921Y1171D02*
X1974Y1171D01*
X1920Y1170D02*
X1976Y1170D01*
X1919Y1169D02*
X1977Y1169D01*
X1919Y1168D02*
X1977Y1168D01*
X1918Y1167D02*
X1978Y1167D01*
X1917Y1166D02*
X1979Y1166D01*
X1916Y1165D02*
X1980Y1165D01*
X1915Y1164D02*
X1980Y1164D01*
X1915Y1163D02*
X1981Y1163D01*
X1914Y1162D02*
X1982Y1162D01*
X1914Y1161D02*
X1982Y1161D01*
X1913Y1160D02*
X1983Y1160D01*
X1913Y1159D02*
X1983Y1159D01*
X1912Y1158D02*
X1984Y1158D01*
X1912Y1157D02*
X1984Y1157D01*
X1911Y1156D02*
X1985Y1156D01*
X1911Y1155D02*
X1985Y1155D01*
X1910Y1154D02*
X1985Y1154D01*
X1910Y1153D02*
X1986Y1153D01*
X1910Y1152D02*
X1986Y1152D01*
X1910Y1151D02*
X1986Y1151D01*
X1909Y1150D02*
X1986Y1150D01*
X1909Y1149D02*
X1987Y1149D01*
X1909Y1148D02*
X1987Y1148D01*
X1909Y1147D02*
X1987Y1147D01*
X1909Y1146D02*
X1987Y1146D01*
X1909Y1145D02*
X1987Y1145D01*
X1909Y1144D02*
X1987Y1144D01*
X1909Y1143D02*
X1987Y1143D01*
X1908Y1142D02*
X1987Y1142D01*
X1908Y1141D02*
X1987Y1141D01*
X1909Y1140D02*
X1987Y1140D01*
X1909Y1139D02*
X1987Y1139D01*
X1909Y1138D02*
X1987Y1138D01*
X1909Y1137D02*
X1987Y1137D01*
X1909Y1136D02*
X1987Y1136D01*
X1909Y1135D02*
X1987Y1135D01*
X1909Y1134D02*
X1987Y1134D01*
X1909Y1133D02*
X1986Y1133D01*
X1910Y1132D02*
X1986Y1132D01*
X1910Y1131D02*
X1986Y1131D01*
X1910Y1130D02*
X1986Y1130D01*
X1911Y1129D02*
X1985Y1129D01*
X1911Y1128D02*
X1985Y1128D01*
X1911Y1127D02*
X1985Y1127D01*
X1912Y1126D02*
X1984Y1126D01*
X1912Y1125D02*
X1984Y1125D01*
X1913Y1124D02*
X1983Y1124D01*
X1913Y1123D02*
X1983Y1123D01*
X1914Y1122D02*
X1982Y1122D01*
X1914Y1121D02*
X1982Y1121D01*
X1915Y1120D02*
X1981Y1120D01*
X1916Y1119D02*
X1980Y1119D01*
X1916Y1118D02*
X1980Y1118D01*
X1917Y1117D02*
X1979Y1117D01*
X1918Y1116D02*
X1978Y1116D01*
X1919Y1115D02*
X1977Y1115D01*
X1920Y1114D02*
X1976Y1114D01*
X1921Y1113D02*
X1975Y1113D01*
X1922Y1112D02*
X1974Y1112D01*
X1923Y1111D02*
X1973Y1111D01*
X1924Y1110D02*
X1972Y1110D01*
X1925Y1109D02*
X1970Y1109D01*
X1927Y1108D02*
X1969Y1108D01*
X1929Y1107D02*
X1967Y1107D01*
X1930Y1106D02*
X1966Y1106D01*
X1932Y1105D02*
X1964Y1105D01*
X1935Y1104D02*
X1961Y1104D01*
X1938Y1103D02*
X1958Y1103D01*
X1944Y1102D02*
X1952Y1102D01*
X1942Y1081D02*
X1954Y1081D01*
X1938Y1080D02*
X1958Y1080D01*
X1934Y1079D02*
X1962Y1079D01*
X1932Y1078D02*
X1964Y1078D01*
X1930Y1077D02*
X1966Y1077D01*
X1928Y1076D02*
X1968Y1076D01*
X1927Y1075D02*
X1969Y1075D01*
X1925Y1074D02*
X1971Y1074D01*
X1924Y1073D02*
X1972Y1073D01*
X1923Y1072D02*
X1973Y1072D01*
X1921Y1071D02*
X1975Y1071D01*
X1920Y1070D02*
X1976Y1070D01*
X1919Y1069D02*
X1977Y1069D01*
X1918Y1068D02*
X1977Y1068D01*
X1918Y1067D02*
X1978Y1067D01*
X1917Y1066D02*
X1979Y1066D01*
X1916Y1065D02*
X1980Y1065D01*
X1915Y1064D02*
X1981Y1064D01*
X1915Y1063D02*
X1981Y1063D01*
X1914Y1062D02*
X1982Y1062D01*
X1914Y1061D02*
X1982Y1061D01*
X1913Y1060D02*
X1983Y1060D01*
X1912Y1059D02*
X1983Y1059D01*
X1912Y1058D02*
X1984Y1058D01*
X1912Y1057D02*
X1984Y1057D01*
X1911Y1056D02*
X1985Y1056D01*
X1911Y1055D02*
X1985Y1055D01*
X1910Y1054D02*
X1985Y1054D01*
X1910Y1053D02*
X1986Y1053D01*
X1910Y1052D02*
X1986Y1052D01*
X1910Y1051D02*
X1986Y1051D01*
X1909Y1050D02*
X1986Y1050D01*
X1909Y1049D02*
X1987Y1049D01*
X1909Y1048D02*
X1987Y1048D01*
X1909Y1047D02*
X1987Y1047D01*
X1909Y1046D02*
X1987Y1046D01*
X1909Y1045D02*
X1987Y1045D01*
X1909Y1044D02*
X1987Y1044D01*
X1909Y1043D02*
X1987Y1043D01*
X1908Y1042D02*
X1987Y1042D01*
X1909Y1041D02*
X1987Y1041D01*
X1909Y1040D02*
X1987Y1040D01*
X1909Y1039D02*
X1987Y1039D01*
X1909Y1038D02*
X1987Y1038D01*
X1909Y1037D02*
X1987Y1037D01*
X1909Y1036D02*
X1987Y1036D01*
X1909Y1035D02*
X1987Y1035D01*
X1909Y1034D02*
X1987Y1034D01*
X1910Y1033D02*
X1986Y1033D01*
X1910Y1032D02*
X1986Y1032D01*
X1910Y1031D02*
X1986Y1031D01*
X1910Y1030D02*
X1986Y1030D01*
X1911Y1029D02*
X1985Y1029D01*
X1911Y1028D02*
X1985Y1028D01*
X1911Y1027D02*
X1985Y1027D01*
X1912Y1026D02*
X1984Y1026D01*
X1912Y1025D02*
X1984Y1025D01*
X1913Y1024D02*
X1983Y1024D01*
X1913Y1023D02*
X1983Y1023D01*
X1914Y1022D02*
X1982Y1022D01*
X1914Y1021D02*
X1982Y1021D01*
X1915Y1020D02*
X1981Y1020D01*
X1916Y1019D02*
X1980Y1019D01*
X1916Y1018D02*
X1980Y1018D01*
X1917Y1017D02*
X1979Y1017D01*
X1918Y1016D02*
X1978Y1016D01*
X1919Y1015D02*
X1977Y1015D01*
X1920Y1014D02*
X1976Y1014D01*
X1921Y1013D02*
X1975Y1013D01*
X1922Y1012D02*
X1974Y1012D01*
X1923Y1011D02*
X1973Y1011D01*
X1924Y1010D02*
X1972Y1010D01*
X1926Y1009D02*
X1970Y1009D01*
X1927Y1008D02*
X1969Y1008D01*
X1929Y1007D02*
X1967Y1007D01*
X1930Y1006D02*
X1965Y1006D01*
X1932Y1005D02*
X1963Y1005D01*
X1935Y1004D02*
X1961Y1004D01*
X1939Y1003D02*
X1957Y1003D01*
X1944Y1002D02*
X1952Y1002D01*
X1942Y981D02*
X1954Y981D01*
X1937Y980D02*
X1959Y980D01*
X1934Y979D02*
X1962Y979D01*
X1932Y978D02*
X1964Y978D01*
X1930Y977D02*
X1966Y977D01*
X1928Y976D02*
X1968Y976D01*
X1927Y975D02*
X1969Y975D01*
X1925Y974D02*
X1971Y974D01*
X1924Y973D02*
X1972Y973D01*
X1922Y972D02*
X1973Y972D01*
X1921Y971D02*
X1975Y971D01*
X1920Y970D02*
X1976Y970D01*
X1919Y969D02*
X1977Y969D01*
X1918Y968D02*
X1977Y968D01*
X1918Y967D02*
X1978Y967D01*
X1917Y966D02*
X1979Y966D01*
X1916Y965D02*
X1980Y965D01*
X1915Y964D02*
X1981Y964D01*
X1915Y963D02*
X1981Y963D01*
X1914Y962D02*
X1982Y962D01*
X1914Y961D02*
X1982Y961D01*
X1913Y960D02*
X1983Y960D01*
X1912Y959D02*
X1983Y959D01*
X1912Y958D02*
X1984Y958D01*
X1912Y957D02*
X1984Y957D01*
X1911Y956D02*
X1985Y956D01*
X1911Y955D02*
X1985Y955D01*
X1910Y954D02*
X1985Y954D01*
X1910Y953D02*
X1986Y953D01*
X1910Y952D02*
X1986Y952D01*
X1910Y951D02*
X1986Y951D01*
X1909Y950D02*
X1986Y950D01*
X1909Y949D02*
X1987Y949D01*
X1909Y948D02*
X1987Y948D01*
X1909Y947D02*
X1987Y947D01*
X1909Y946D02*
X1987Y946D01*
X1909Y945D02*
X1987Y945D01*
X1909Y944D02*
X1987Y944D01*
X1909Y943D02*
X1987Y943D01*
X1908Y942D02*
X1987Y942D01*
X1909Y941D02*
X1987Y941D01*
X1909Y940D02*
X1987Y940D01*
X1909Y939D02*
X1987Y939D01*
X1909Y938D02*
X1987Y938D01*
X1909Y937D02*
X1987Y937D01*
X1909Y936D02*
X1987Y936D01*
X1909Y935D02*
X1987Y935D01*
X1909Y934D02*
X1987Y934D01*
X1910Y933D02*
X1986Y933D01*
X1910Y932D02*
X1986Y932D01*
X1910Y931D02*
X1986Y931D01*
X1910Y930D02*
X1986Y930D01*
X1911Y929D02*
X1985Y929D01*
X1911Y928D02*
X1985Y928D01*
X1911Y927D02*
X1985Y927D01*
X1912Y926D02*
X1984Y926D01*
X1912Y925D02*
X1984Y925D01*
X1913Y924D02*
X1983Y924D01*
X1913Y923D02*
X1983Y923D01*
X1914Y922D02*
X1982Y922D01*
X1914Y921D02*
X1982Y921D01*
X1915Y920D02*
X1981Y920D01*
X1916Y919D02*
X1980Y919D01*
X1916Y918D02*
X1980Y918D01*
X1917Y917D02*
X1979Y917D01*
X1918Y916D02*
X1978Y916D01*
X1919Y915D02*
X1977Y915D01*
X1920Y914D02*
X1976Y914D01*
X1921Y913D02*
X1975Y913D01*
X1922Y912D02*
X1974Y912D01*
X1923Y911D02*
X1973Y911D01*
X1924Y910D02*
X1972Y910D01*
X1926Y909D02*
X1970Y909D01*
X1927Y908D02*
X1969Y908D01*
X1929Y907D02*
X1967Y907D01*
X1931Y906D02*
X1965Y906D01*
X1933Y905D02*
X1963Y905D01*
X1935Y904D02*
X1961Y904D01*
X1939Y903D02*
X1957Y903D01*
X1944Y902D02*
X1952Y902D01*
D02*
G04 End of Mask0*
M02*